REM DIRINDEX 1\2,1\3
REM DIRNAME folder01,folder02,folder03
TITLE ""
FILE "22.mp3" MP3
  TRACK 01 AUDIO
    TITLE "0:"
    INDEX 01 00:00:00
  TRACK 02 AUDIO
    TITLE "3:cjc132_0388"
    INDEX 01 00:00:15
  TRACK 03 AUDIO
    TITLE "0:"
    INDEX 01 00:01:21
  TRACK 04 AUDIO
    TITLE "2:cjc132_0389"
    INDEX 01 00:01:69
  TRACK 05 AUDIO
    TITLE "0:"
    INDEX 01 00:03:12
  TRACK 06 AUDIO
    TITLE "2:cjc132_0390"
    INDEX 01 00:03:61
  TRACK 07 AUDIO
    TITLE "0:"
    INDEX 01 00:05:28
  TRACK 08 AUDIO
    TITLE "2:cjc132_0391"
    INDEX 01 00:05:73
  TRACK 09 AUDIO
    TITLE "0:"
    INDEX 01 00:07:37
  TRACK 10 AUDIO
    TITLE "2:cjc132_0392"
    INDEX 01 00:08:13
  TRACK 11 AUDIO
    TITLE "0:"
    INDEX 01 00:09:28
  TRACK 12 AUDIO
    TITLE "2:cjc132_0393"
    INDEX 01 00:10:04
  TRACK 13 AUDIO
    TITLE "0:"
    INDEX 01 00:11:33
  TRACK 14 AUDIO
    TITLE "2:cjc132_0394"
    INDEX 01 00:12:07
  TRACK 15 AUDIO
    TITLE "0:"
    INDEX 01 00:13:55
  TRACK 16 AUDIO
    TITLE "2:cjc132_0395"
    INDEX 01 00:14:29
  TRACK 17 AUDIO
    TITLE "0:"
    INDEX 01 00:15:66
  TRACK 18 AUDIO
    TITLE "2:cjc132_0396"
    INDEX 01 00:16:42
  TRACK 19 AUDIO
    TITLE "0:"
    INDEX 01 00:18:09
  TRACK 20 AUDIO
    TITLE "2:cjc132_0397"
    INDEX 01 00:18:58
  TRACK 21 AUDIO
    TITLE "0:"
    INDEX 01 00:20:37
  TRACK 22 AUDIO
    TITLE "2:cjc132_0398"
    INDEX 01 00:21:11
  TRACK 23 AUDIO
    TITLE "0:"
    INDEX 01 00:22:38
  TRACK 24 AUDIO
    TITLE "2:cjc132_0399"
    INDEX 01 00:23:14
  TRACK 25 AUDIO
    TITLE "0:"
    INDEX 01 00:25:15
  TRACK 26 AUDIO
    TITLE "2:cjc132_0400"
    INDEX 01 00:26:24
  TRACK 27 AUDIO
    TITLE "0:"
    INDEX 01 00:27:73
  TRACK 28 AUDIO
    TITLE "2:cjc132_0401"
    INDEX 01 00:29:66
  TRACK 29 AUDIO
    TITLE "0:"
    INDEX 01 00:31:53
  TRACK 30 AUDIO
    TITLE "2:cjc132_0402"
    INDEX 01 00:33:58
  TRACK 31 AUDIO
    TITLE "0:"
    INDEX 01 00:35:55
  TRACK 32 AUDIO
    TITLE "2:cjc132_0403"
    INDEX 01 00:38:02
  TRACK 33 AUDIO
    TITLE "0:"
    INDEX 01 00:39:39
  TRACK 34 AUDIO
    TITLE "2:cjc132_0404"
    INDEX 01 00:41:24
  TRACK 35 AUDIO
    TITLE "0:"
    INDEX 01 00:43:13
  TRACK 36 AUDIO
    TITLE "2:cjc132_0405"
    INDEX 01 00:45:22
  TRACK 37 AUDIO
    TITLE "0:"
    INDEX 01 00:47:03
  TRACK 38 AUDIO
    TITLE "2:cjc132_0406"
    INDEX 01 00:49:06
  TRACK 39 AUDIO
    TITLE "0:"
    INDEX 01 00:50:68
  TRACK 40 AUDIO
    TITLE "2:cjc132_0407"
    INDEX 01 00:53:02
  TRACK 41 AUDIO
    TITLE "0:"
    INDEX 01 00:55:12
  TRACK 42 AUDIO
    TITLE "2:cjc132_0408"
    INDEX 01 00:57:45
  TRACK 43 AUDIO
    TITLE "0:"
    INDEX 01 00:59:73
  TRACK 44 AUDIO
    TITLE "2:cjc132_0409"
    INDEX 01 01:02:52
  TRACK 45 AUDIO
    TITLE "0:"
    INDEX 01 01:04:54
  TRACK 46 AUDIO
    TITLE "2:cjc132_0410"
    INDEX 01 01:07:06
  TRACK 47 AUDIO
    TITLE "0:"
    INDEX 01 01:08:66
  TRACK 48 AUDIO
    TITLE "2:cjc132_0411"
    INDEX 01 01:11:00
  TRACK 49 AUDIO
    TITLE "0:"
    INDEX 01 01:12:52
  TRACK 50 AUDIO
    TITLE "2:cjc132_0412"
    INDEX 01 01:14:51
  TRACK 51 AUDIO
    TITLE "0:"
    INDEX 01 01:16:36
  TRACK 52 AUDIO
    TITLE "2:cjc132_0413"
    INDEX 01 01:18:37
  TRACK 53 AUDIO
    TITLE "0:"
    INDEX 01 01:20:08
  TRACK 54 AUDIO
    TITLE "2:cjc132_0414"
    INDEX 01 01:21:74
  TRACK 55 AUDIO
    TITLE "0:"
    INDEX 01 01:23:69
  TRACK 56 AUDIO
    TITLE "2:cjc132_0415"
    INDEX 01 01:26:05
  TRACK 57 AUDIO
    TITLE "0:"
    INDEX 01 01:27:20
  TRACK 58 AUDIO
    TITLE "2:cjc132_0416"
    INDEX 01 01:28:55
  TRACK 59 AUDIO
    TITLE "0:"
    INDEX 01 01:30:40
  TRACK 60 AUDIO
    TITLE "2:cjc132_0417"
    INDEX 01 01:32:43
  TRACK 61 AUDIO
    TITLE "0:"
    INDEX 01 01:34:46
  TRACK 62 AUDIO
    TITLE "2:cjc132_0418"
    INDEX 01 01:36:72
  TRACK 63 AUDIO
    TITLE "0:"
    INDEX 01 01:38:42
  TRACK 64 AUDIO
    TITLE "2:cjc132_0419"
    INDEX 01 01:40:31
  TRACK 65 AUDIO
    TITLE "0:"
    INDEX 01 01:42:18
  TRACK 66 AUDIO
    TITLE "2:cjc132_0420"
    INDEX 01 01:44:26
  TRACK 67 AUDIO
    TITLE "0:"
    INDEX 01 01:46:35
  TRACK 68 AUDIO
    TITLE "2:cjc132_0421"
    INDEX 01 01:48:65
  TRACK 69 AUDIO
    TITLE "0:"
    INDEX 01 01:50:58
  TRACK 70 AUDIO
    TITLE "2:cjc132_0422"
    INDEX 01 01:52:71
  TRACK 71 AUDIO
    TITLE "0:"
    INDEX 01 01:54:33
  TRACK 72 AUDIO
    TITLE "2:cjc132_0423"
    INDEX 01 01:56:14
  TRACK 73 AUDIO
    TITLE "0:"
    INDEX 01 01:57:66
  TRACK 74 AUDIO
    TITLE "2:cjc132_0424"
    INDEX 01 01:59:59
  TRACK 75 AUDIO
    TITLE "0:"
    INDEX 01 02:01:23
